<?xml version="1.0" encoding="UTF-8" standalone="no"?>
<svg
   xmlns:dc="http://purl.org/dc/elements/1.1/"
   xmlns:cc="http://creativecommons.org/ns#"
   xmlns:rdf="http://www.w3.org/1999/02/22-rdf-syntax-ns#"
   xmlns:svg="http://www.w3.org/2000/svg"
   xmlns="http://www.w3.org/2000/svg"
   xmlns:xlink="http://www.w3.org/1999/xlink"
   xmlns:sodipodi="http://sodipodi.sourceforge.net/DTD/sodipodi-0.dtd"
   xmlns:inkscape="http://www.inkscape.org/namespaces/inkscape"
   height="64"
   width="64"
   version="1.1"
   id="svg42"
   sodipodi:docname="folder-development.svg"
   inkscape:version="0.92.5 (2060ec1f9f, 2020-04-08)">
  <metadata
     id="metadata48">
    <rdf:RDF>
      <cc:Work
         rdf:about="">
        <dc:format>image/svg+xml</dc:format>
        <dc:type
           rdf:resource="http://purl.org/dc/dcmitype/StillImage" />
      </cc:Work>
    </rdf:RDF>
  </metadata>
  <defs
     id="defs46">
    <linearGradient
       id="linearGradient858">
      <stop
         style="stop-color:#0cc0dc;stop-opacity:1"
         offset="0"
         stop-color="#0c6adc"
         id="stop854" />
      <stop
         style="stop-color:#0eef28;stop-opacity:1"
         offset="1"
         stop-color="#0eecef"
         id="stop856" />
    </linearGradient>
    <linearGradient
       id="linearGradient842">
      <stop
         id="stop838"
         stop-color="#0c6adc"
         offset="0"
         style="stop-color:#dc0c0c;stop-opacity:1" />
      <stop
         id="stop840"
         stop-color="#0eecef"
         offset="1"
         style="stop-color:#0e4cef;stop-opacity:1" />
    </linearGradient>
    <linearGradient
       id="linearGradient849">
      <stop
         id="stop845"
         stop-color="#0c6adc"
         offset="0"
         style="stop-color:#fcff29;stop-opacity:1" />
      <stop
         id="stop847"
         stop-color="#0eecef"
         offset="1"
         style="stop-color:#72f7d6;stop-opacity:1" />
    </linearGradient>
    <linearGradient
       inkscape:collect="always"
       xlink:href="#linearGradient858"
       id="linearGradient860"
       gradientUnits="userSpaceOnUse"
       x1="25.656"
       y1="40.301998"
       x2="36.818115"
       y2="51.401222" />
  </defs>
  <sodipodi:namedview
     pagecolor="#ffffff"
     bordercolor="#666666"
     borderopacity="1"
     objecttolerance="10"
     gridtolerance="10"
     guidetolerance="10"
     inkscape:pageopacity="0"
     inkscape:pageshadow="2"
     inkscape:window-width="1920"
     inkscape:window-height="1013"
     id="namedview44"
     showgrid="false"
     inkscape:zoom="3.6875"
     inkscape:cx="17.184063"
     inkscape:cy="32"
     inkscape:window-x="1920"
     inkscape:window-y="0"
     inkscape:window-maximized="1"
     inkscape:current-layer="svg42" />
  <linearGradient
     id="a">
    <stop
       offset="0"
       stop-color="#0c6adc"
       id="stop2" />
    <stop
       offset="1"
       stop-color="#0eecef"
       id="stop4" />
  </linearGradient>
  <linearGradient
     id="b"
     gradientUnits="userSpaceOnUse"
     x1="-54.435"
     x2="-19.412"
     xlink:href="#a"
     y1="14.268"
     y2="39.284" />
  <linearGradient
     id="c"
     gradientUnits="userSpaceOnUse"
     x1="-54.435"
     x2="-14.409"
     xlink:href="#a"
     y1="11.618"
     y2="44.287" />
  <linearGradient
     id="f"
     gradientTransform="matrix(1.0033 0 0 1.00331 .117 1.545)"
     gradientUnits="userSpaceOnUse"
     x1="-54.435"
     x2="-14.409"
     xlink:href="#a"
     y1="11.618"
     y2="44.287" />
  <linearGradient
     id="e"
     gradientTransform="matrix(1.0033 0 0 1.00331 .119 -.157)"
     gradientUnits="userSpaceOnUse"
     x1="-54.435"
     x2="-14.409"
     xlink:href="#a"
     y1="11.618"
     y2="44.287" />
  <linearGradient
     id="d"
     gradientTransform="matrix(1.0033 0 0 1.00331 .119 -.157)"
     gradientUnits="userSpaceOnUse"
     x1="-54.435"
     x2="-16.41"
     y1="19.271"
     y2="45.288">
    <stop
       offset="0"
       stop-color="#0c6adc"
       stop-opacity=".2"
       id="stop11" />
    <stop
       offset="1"
       stop-color="#0eecef"
       stop-opacity=".2"
       id="stop13" />
  </linearGradient>
  <g
     transform="matrix(1.35024 0 0 1.35193 80.504 -1.726)"
     stroke="url(#b)"
     stroke-width=".962"
     stroke-linecap="round"
     stroke-linejoin="round"
     id="g30"
     style="fill:none;stroke-width:2.22043808;stroke-miterlimit:4;stroke-dasharray:none">
    <path
       d="M-19.259 16.44v-1.48c0-.74-.74-1.48-1.481-1.48h-17.75"
       fill="none"
       stroke="#aaa"
       stroke-width=".74"
       id="path16"
       style="fill:none;stroke-width:2.22043808;stroke-miterlimit:4;stroke-dasharray:none" />
    <g
       transform="translate(0 -2.74)"
       clip-rule="evenodd"
       stroke="url(#c)"
       stroke-width=".888"
       id="g22"
       style="fill:none;stroke-width:2.22043808;stroke-miterlimit:4;stroke-dasharray:none">
      <path
         d="M-38.432 19.178l-4.016-5.02-13.1-.155c-2.223 0-2.963 1.48-2.963 2.959V44.33c0 1.48.74 2.959 2.962 2.959h39.253c2.222 0 2.962-1.48 2.962-2.96V22.14c0-1.479-.74-2.958-2.962-2.958z"
         fill="url(#d)"
         fill-rule="evenodd"
         stroke="url(#e)"
         id="path18"
         style="fill:none;stroke-width:2.22043808;stroke-miterlimit:4;stroke-dasharray:none" />
      <path
         d="M-16.296 14.742V8.825h-11.85l-2.222 2.22h-22.959"
         fill="none"
         stroke="url(#f)"
         id="path20"
         style="fill:none;stroke-width:2.22043808;stroke-miterlimit:4;stroke-dasharray:none" />
    </g>
    <g
       fill="none"
       stroke-width=".74"
       stroke-linecap="butt"
       stroke-linejoin="miter"
       id="g28"
       style="fill:none;stroke-width:2.22043808;stroke-miterlimit:4;stroke-dasharray:none">
      <path
         d="M-26.665 8.303h6.666"
         stroke="#0c6adc"
         id="path24"
         style="fill:none;stroke-width:2.22043808;stroke-miterlimit:4;stroke-dasharray:none" />
      <path
         d="M-20 8.303h2.222"
         stroke="#aaa"
         id="path26"
         style="fill:none;stroke-width:2.22043808;stroke-miterlimit:4;stroke-dasharray:none" />
    </g>
  </g>
  <g
     id="g38"
     style="fill:none;stroke:url(#linearGradient860)"
     transform="matrix(1.1131857,0,0,1.2181408,-3.9458027,-9.0026957)">
    <path
       d="m 19.2,46.65 a 1.68,1.68 0 0 1 0.48,-1.116 l 3.438,-3.36 c 0.366,-0.39 1.248,-0.468 1.602,-0.252 0.132,0 1.8,1.002 2.046,1.38 0.978,1.5 -0.54,2.898 -1.86,2.448 l -0.558,-0.33 -2.544,2.496 c -1.008,0.84 -2.682,0.15 -2.598,-1.26 z M 37.644,27.786 a 5.628,5.628 0 0 1 1.86,-0.126 l -2.16,3.66 a 1.548,1.548 0 0 0 0.564,2.142 l 1.386,0.804 a 1.572,1.572 0 0 0 2.16,-0.558 l 2.154,-3.66 a 5.532,5.532 0 0 1 0.792,1.662 5.508,5.508 0 0 1 -3.96,6.72 5.628,5.628 0 0 1 -1.86,0.132 l -1.278,1.77 -5.412,-0.036 c 0,0 2.412,-4.092 2.58,-4.122 A 5.532,5.532 0 0 1 33.678,34.5 5.508,5.508 0 0 1 37.638,27.78 Z M 24.912,28.74 a 5.724,5.724 0 0 0 -1.032,0.348 c -0.036,0.99 0.132,2.292 -0.252,2.628 -0.384,0.336 -1.65,0.06 -2.628,-0.048 a 5.76,5.76 0 0 0 -0.498,1.188 c 0.762,0.63 1.812,1.332 1.836,1.836 0.024,0.51 -0.996,1.278 -1.68,1.986 0.156,0.408 0.39,0.78 0.636,1.14 0.966,-0.198 2.166,-0.594 2.58,-0.3 0.42,0.3 0.42,1.602 0.54,2.58 0.402,0.12 0.816,0.168 1.242,0.204 0.444,-0.882 0.9,-2.1 1.386,-2.232 0.504,-0.144 1.53,0.72 2.376,1.236 a 5.718,5.718 0 0 0 0.942,-0.84 c -0.402,-0.912 -1.14,-2.052 -0.942,-2.532 0.204,-0.48 1.548,-0.744 2.478,-1.092 0.006,-0.12 0.054,-0.228 0.054,-0.348 0,-0.3 -0.06,-0.6 -0.102,-0.894 -0.96,-0.252 -2.328,-0.378 -2.58,-0.84 -0.24,-0.456 0.39,-1.68 0.696,-2.628 a 5.844,5.844 0 0 0 -1.038,-0.744 c -0.792,0.594 -1.722,1.578 -2.232,1.488 -0.498,-0.096 -1.05,-1.302 -1.584,-2.136 -0.06,0.012 -0.132,-0.012 -0.198,0 z m 0.99,2.976 a 2.679,2.679 0 1 1 0,5.358 2.679,2.679 0 0 1 0,-5.358 z"
       id="path32"
       style="fill:none;stroke:url(#linearGradient860)"
       inkscape:connector-curvature="0" />
    <path
       d="M 23.958,41.886 H 39.81 l 0.012,9.624 c 0,0.78 -0.75,1.488 -1.578,1.488 H 25.554 A 1.584,1.584 0 0 1 23.97,51.414 Z"
       id="path34"
       style="fill:none;stroke:url(#linearGradient860)"
       inkscape:connector-curvature="0" />
    <path
       d="m 44.538,46.614 a 1.68,1.68 0 0 0 -0.48,-1.116 l -3.432,-3.36 c -0.372,-0.39 -1.248,-0.468 -1.608,-0.252 -0.126,0 -1.8,1.002 -2.04,1.38 -0.984,1.5 0.54,2.898 1.86,2.448 l 0.552,-0.336 2.544,2.496 c 1.014,0.84 2.688,0.15 2.604,-1.26 z"
       id="path36"
       style="fill:none;stroke:url(#linearGradient860)"
       inkscape:connector-curvature="0" />
  </g>
  <path
     d="M19.2 27.6h25.398v25.398H19.2z"
     fill="none"
     id="path40" />
</svg>
