<?xml version="1.0" encoding="UTF-8" standalone="no"?>
<svg
   xmlns:dc="http://purl.org/dc/elements/1.1/"
   xmlns:cc="http://creativecommons.org/ns#"
   xmlns:rdf="http://www.w3.org/1999/02/22-rdf-syntax-ns#"
   xmlns:svg="http://www.w3.org/2000/svg"
   xmlns="http://www.w3.org/2000/svg"
   xmlns:xlink="http://www.w3.org/1999/xlink"
   xmlns:sodipodi="http://sodipodi.sourceforge.net/DTD/sodipodi-0.dtd"
   xmlns:inkscape="http://www.inkscape.org/namespaces/inkscape"
   height="64"
   width="64"
   version="1.1"
   id="svg36"
   sodipodi:docname="folder-remote.svg"
   inkscape:version="0.92.5 (2060ec1f9f, 2020-04-08)">
  <metadata
     id="metadata42">
    <rdf:RDF>
      <cc:Work
         rdf:about="">
        <dc:format>image/svg+xml</dc:format>
        <dc:type
           rdf:resource="http://purl.org/dc/dcmitype/StillImage" />
      </cc:Work>
    </rdf:RDF>
  </metadata>
  <defs
     id="defs40">
    <linearGradient
       id="linearGradient846">
      <stop
         id="stop842"
         stop-color="#0c6adc"
         offset="0"
         style="stop-color:#f1f10e;stop-opacity:1" />
      <stop
         id="stop844"
         stop-color="#0eecef"
         offset="1"
         style="stop-color:#40ef0e;stop-opacity:1" />
    </linearGradient>
    <linearGradient
       inkscape:collect="always"
       xlink:href="#linearGradient846"
       id="linearGradient840"
       x1="26.14773"
       y1="45.192242"
       x2="73.049698"
       y2="29.192242"
       gradientUnits="userSpaceOnUse"
       gradientTransform="matrix(1.4445153,0,0,1.408274,-13.880404,-17.234765)" />
  </defs>
  <sodipodi:namedview
     pagecolor="#ffffff"
     bordercolor="#666666"
     borderopacity="1"
     objecttolerance="10"
     gridtolerance="10"
     guidetolerance="10"
     inkscape:pageopacity="0"
     inkscape:pageshadow="2"
     inkscape:window-width="1920"
     inkscape:window-height="1013"
     id="namedview38"
     showgrid="false"
     inkscape:zoom="3.6875"
     inkscape:cx="32"
     inkscape:cy="32"
     inkscape:window-x="0"
     inkscape:window-y="0"
     inkscape:window-maximized="1"
     inkscape:current-layer="svg36" />
  <linearGradient
     id="a">
    <stop
       offset="0"
       stop-color="#0c6adc"
       id="stop2" />
    <stop
       offset="1"
       stop-color="#0eecef"
       id="stop4" />
  </linearGradient>
  <linearGradient
     id="b"
     gradientUnits="userSpaceOnUse"
     x1="-54.435"
     x2="-19.412"
     xlink:href="#a"
     y1="14.268"
     y2="39.284" />
  <linearGradient
     id="c"
     gradientUnits="userSpaceOnUse"
     x1="-54.435"
     x2="-14.409"
     xlink:href="#a"
     y1="11.618"
     y2="44.287" />
  <linearGradient
     id="f"
     gradientTransform="matrix(1.0033 0 0 1.00331 .117 1.545)"
     gradientUnits="userSpaceOnUse"
     x1="-54.435"
     x2="-14.409"
     xlink:href="#a"
     y1="11.618"
     y2="44.287" />
  <linearGradient
     id="e"
     gradientTransform="matrix(1.0033 0 0 1.00331 .119 -.157)"
     gradientUnits="userSpaceOnUse"
     x1="-54.435"
     x2="-14.409"
     xlink:href="#a"
     y1="11.618"
     y2="44.287" />
  <linearGradient
     id="d"
     gradientTransform="matrix(1.0033 0 0 1.00331 .119 -.157)"
     gradientUnits="userSpaceOnUse"
     x1="-54.435"
     x2="-16.41"
     y1="19.271"
     y2="45.288">
    <stop
       offset="0"
       stop-color="#0c6adc"
       stop-opacity=".2"
       id="stop11" />
    <stop
       offset="1"
       stop-color="#0eecef"
       stop-opacity=".2"
       id="stop13" />
  </linearGradient>
  <g
     transform="matrix(1.35024 0 0 1.35193 80.504 -1.726)"
     stroke="url(#b)"
     stroke-width=".962"
     stroke-linecap="round"
     stroke-linejoin="round"
     id="g30"
     style="fill:none;stroke-width:2.22043808;stroke-miterlimit:4;stroke-dasharray:none">
    <path
       d="M-19.259 16.44v-1.48c0-.74-.74-1.48-1.481-1.48h-17.75"
       fill="none"
       stroke="#aaa"
       stroke-width=".74"
       id="path16"
       style="fill:none;stroke-width:2.22043808;stroke-miterlimit:4;stroke-dasharray:none" />
    <g
       transform="translate(0 -2.74)"
       clip-rule="evenodd"
       stroke="url(#c)"
       stroke-width=".888"
       id="g22"
       style="fill:none;stroke-width:2.22043808;stroke-miterlimit:4;stroke-dasharray:none">
      <path
         d="M-38.432 19.178l-4.016-5.02-13.1-.155c-2.223 0-2.963 1.48-2.963 2.959V44.33c0 1.48.74 2.959 2.962 2.959h39.253c2.222 0 2.962-1.48 2.962-2.96V22.14c0-1.479-.74-2.958-2.962-2.958z"
         fill="url(#d)"
         fill-rule="evenodd"
         stroke="url(#e)"
         id="path18"
         style="fill:none;stroke-width:2.22043808;stroke-miterlimit:4;stroke-dasharray:none" />
      <path
         d="M-16.296 14.742V8.825h-11.85l-2.222 2.22h-22.959"
         fill="none"
         stroke="url(#f)"
         id="path20"
         style="fill:none;stroke-width:2.22043808;stroke-miterlimit:4;stroke-dasharray:none" />
    </g>
    <g
       fill="none"
       stroke-width=".74"
       stroke-linecap="butt"
       stroke-linejoin="miter"
       id="g28"
       style="fill:none;stroke-width:2.22043808;stroke-miterlimit:4;stroke-dasharray:none">
      <path
         d="M-26.665 8.303h6.666"
         stroke="#0c6adc"
         id="path24"
         style="fill:none;stroke-width:2.22043808;stroke-miterlimit:4;stroke-dasharray:none" />
      <path
         d="M-20 8.303h2.222"
         stroke="#aaa"
         id="path26"
         style="fill:none;stroke-width:2.22043808;stroke-miterlimit:4;stroke-dasharray:none" />
    </g>
  </g>
  <path
     d="M19.2 27.6h25.398v25.398H19.2z"
     fill="none"
     id="path32" />
  <path
     d="m 31.569827,23.889651 a 16.051454,15.64874 0 1 0 1.074719,0 z m 0.632697,6.683669 a 9.1755613,8.9453563 0 0 1 9.169784,8.948173 v 1.115353 a 3.4408355,3.3545086 0 0 1 -6.066965,2.154659 4.5588904,4.4445127 0 0 1 -7.68771,-3.270012 4.5935587,4.4783112 0 1 1 9.169783,0 v 1.115353 a 1.1440561,1.115353 0 0 0 2.288112,0 v -1.115353 a 6.881671,6.7090172 0 1 0 -6.873004,6.700567 h 5.728948 c 0,0 1.144056,0 1.144056,1.123803 -0.06934,1.115353 -1.144056,1.115353 -1.144056,1.115353 h -5.728948 a 9.1741168,8.943948 0 1 1 0,-17.887896 z m 0,6.709017 a 2.2967794,2.2391556 0 1 0 0,4.478311 2.2967794,2.2391556 0 0 0 0,-4.478311 z"
     id="path34"
     style="fill:none;stroke:url(#linearGradient840);stroke-width:1.42627954;stroke-opacity:1"
     inkscape:connector-curvature="0" />
</svg>
