<?xml version="1.0" encoding="UTF-8" standalone="no"?>
<svg
   xmlns:osb="http://www.openswatchbook.org/uri/2009/osb"
   xmlns:dc="http://purl.org/dc/elements/1.1/"
   xmlns:cc="http://creativecommons.org/ns#"
   xmlns:rdf="http://www.w3.org/1999/02/22-rdf-syntax-ns#"
   xmlns:svg="http://www.w3.org/2000/svg"
   xmlns="http://www.w3.org/2000/svg"
   xmlns:xlink="http://www.w3.org/1999/xlink"
   xmlns:sodipodi="http://sodipodi.sourceforge.net/DTD/sodipodi-0.dtd"
   xmlns:inkscape="http://www.inkscape.org/namespaces/inkscape"
   viewBox="0 0 48 48"
   version="1.1"
   id="svg25"
   sodipodi:docname="keepass2.svg"
   inkscape:version="0.92.5 (2060ec1f9f, 2020-04-08)">
  <metadata
     id="metadata31">
    <rdf:RDF>
      <cc:Work
         rdf:about="">
        <dc:format>image/svg+xml</dc:format>
        <dc:type
           rdf:resource="http://purl.org/dc/dcmitype/StillImage" />
        <dc:title />
      </cc:Work>
    </rdf:RDF>
  </metadata>
  <defs
     id="defs29">
    <linearGradient
       inkscape:collect="always"
       xlink:href="#a"
       id="linearGradient1470"
       gradientUnits="userSpaceOnUse"
       gradientTransform="matrix(1.5088156,0,0,1.4312832,-3.7838553,-23.737071)"
       x1="2.8474569"
       y1="33.457626"
       x2="33.762711"
       y2="33.457626" />
  </defs>
  <sodipodi:namedview
     pagecolor="#ffffff"
     bordercolor="#666666"
     borderopacity="1"
     objecttolerance="10"
     gridtolerance="10"
     guidetolerance="10"
     inkscape:pageopacity="0"
     inkscape:pageshadow="2"
     inkscape:window-width="1920"
     inkscape:window-height="1013"
     id="namedview27"
     showgrid="false"
     inkscape:zoom="4.9166667"
     inkscape:cx="24"
     inkscape:cy="24"
     inkscape:window-x="1920"
     inkscape:window-y="0"
     inkscape:window-maximized="1"
     inkscape:current-layer="svg25" />
  <linearGradient
     id="a"
     osb:paint="gradient">
    <stop
       offset="0"
       stop-color="#ffc100"
       id="stop2"
       style="stop-color:#4fffff;stop-opacity:1;" />
    <stop
       offset="1"
       stop-color="#ff0069"
       id="stop4" />
  </linearGradient>
  <linearGradient
     id="b"
     gradientTransform="matrix(1.43791,0,0,1.35061,-10.37522,-9.2301694)"
     gradientUnits="userSpaceOnUse"
     x1="13.999"
     x2="34.001"
     xlink:href="#a"
     y1="27"
     y2="27" />
  <linearGradient
     id="c"
     gradientTransform="matrix(1.43791,0,0,1.35061,-10.37522,-9.2301694)"
     gradientUnits="userSpaceOnUse"
     x1="14"
     x2="34.001"
     xlink:href="#a"
     y1="18.5"
     y2="18.5" />
  <linearGradient
     id="d"
     gradientTransform="matrix(1.07437,0,0,1.00914,-1.6502204,-1.4601695)"
     gradientUnits="userSpaceOnUse"
     x1="14.162"
     x2="33.838"
     xlink:href="#a"
     y1="11.541"
     y2="11.541" />
  <linearGradient
     id="e"
     gradientUnits="userSpaceOnUse"
     x1="15.174"
     x2="36.282"
     xlink:href="#a"
     y1="12.796"
     y2="12.796"
     gradientTransform="translate(-1.5932204,-2.6101694)" />
  <path
     d="m 16.94578,15.75683 c 0,0.374 -0.967,0.675 -2.157,0.675 -1.19,0 -2.157,-0.3 -2.157,-0.675 0,-0.374 0.966,-0.675 2.157,-0.675 1.19,0 2.157,0.3 2.157,0.675 m 18.692,0 c 0,0.374 -0.966,0.675 -2.156,0.675 -1.191,0 -2.157,-0.3 -2.157,-0.675 0,-0.374 0.966,-0.675 2.157,-0.675 1.19,0 2.156,0.3 2.156,0.675"
     id="path21"
     inkscape:connector-curvature="0"
     style="fill:#2f2f2f" />
  <path
     d="m 11.03078,13.73083 h 26.21 c 0.7,0 1.275,0.538 1.275,1.198 v 1.657 c 0,0.66 -0.573,1.198 -1.276,1.198 h -26.209 c -0.701,0 -1.2750004,-0.537 -1.2750004,-1.198 v -1.656 c 0,-0.66 0.5720004,-1.198 1.2750004,-1.198"
     id="path11"
     style="fill:none;stroke:url(#c);stroke-width:1.39400005"
     inkscape:connector-curvature="0" />
  <path
     d="m 14.06978,15.08183 c 0,-5.4029996 2.876,-10.8049994 10.065,-10.8049994 7.19,0 10.065,5.4019998 10.065,10.8049994 0,1.35 -1.437,1.35 -1.437,0 0,-4.052 -2.876,-9.4549994 -8.628,-9.4549994 -5.752,0 -8.627,5.4029994 -8.627,9.4549994 0,1.35 -1.438,1.35 -1.438,0"
     id="path19"
     style="fill:url(#e);stroke:url(#d);stroke-width:0.977;stroke-linecap:square"
     inkscape:connector-curvature="0" />
  <path
     d="m 38.51378,16.43183 0.002,20.413 c 0,0.66 -0.573,1.198 -1.276,1.198 h -26.209 c -0.701,0 -1.2750004,-0.537 -1.2750004,-1.198 l -10e-4,-20.413"
     id="path23"
     style="fill:none;stroke:url(#b);stroke-width:1.39400005"
     inkscape:connector-curvature="0" />
  <path
     style="fill:none;stroke:url(#linearGradient1470);stroke-width:1.46953821"
     id="path1432"
     sodipodi:type="arc"
     sodipodi:cx="23.835138"
     sodipodi:cy="24.150265"
     sodipodi:rx="23.322708"
     sodipodi:ry="23.14312"
     sodipodi:start="0"
     sodipodi:end="6.1822704"
     sodipodi:open="true"
     d="M 47.157846,24.150265 A 23.322708,23.14312 0 0 1 24.423478,47.28602 23.322708,23.14312 0 0 1 0.54211317,25.317512 23.322708,23.14312 0 0 1 22.071616,1.0733998 23.322708,23.14312 0 0 1 47.03919,21.818741" />
</svg>
