<?xml version="1.0" encoding="UTF-8" standalone="no"?>
<svg
   xmlns:dc="http://purl.org/dc/elements/1.1/"
   xmlns:cc="http://creativecommons.org/ns#"
   xmlns:rdf="http://www.w3.org/1999/02/22-rdf-syntax-ns#"
   xmlns:svg="http://www.w3.org/2000/svg"
   xmlns="http://www.w3.org/2000/svg"
   xmlns:sodipodi="http://sodipodi.sourceforge.net/DTD/sodipodi-0.dtd"
   xmlns:inkscape="http://www.inkscape.org/namespaces/inkscape"
   viewBox="0 0 48 48"
   version="1.1"
   id="svg15"
   sodipodi:docname="software-sources.svg"
   inkscape:version="0.92.5 (2060ec1f9f, 2020-04-08)">
  <metadata
     id="metadata21">
    <rdf:RDF>
      <cc:Work
         rdf:about="">
        <dc:format>image/svg+xml</dc:format>
        <dc:type
           rdf:resource="http://purl.org/dc/dcmitype/StillImage" />
        <dc:title></dc:title>
      </cc:Work>
    </rdf:RDF>
  </metadata>
  <defs
     id="defs19" />
  <sodipodi:namedview
     pagecolor="#ffffff"
     bordercolor="#666666"
     borderopacity="1"
     objecttolerance="10"
     gridtolerance="10"
     guidetolerance="10"
     inkscape:pageopacity="0"
     inkscape:pageshadow="2"
     inkscape:window-width="901"
     inkscape:window-height="480"
     id="namedview17"
     showgrid="false"
     inkscape:zoom="4.9166667"
     inkscape:cx="24"
     inkscape:cy="24"
     inkscape:window-x="0"
     inkscape:window-y="0"
     inkscape:window-maximized="0"
     inkscape:current-layer="svg15" />
  <linearGradient
     id="a"
     gradientUnits="userSpaceOnUse"
     x1="15.049"
     x2="37"
     y1="13.402"
     y2="34.216">
    <stop
       offset="0"
       stop-color="#ff06f7"
       id="stop2" />
    <stop
       offset="1"
       stop-color="#9587ff"
       id="stop4" />
  </linearGradient>
  <g
     fill="none"
     stroke="url(#a)"
     stroke-linecap="round"
     stroke-linejoin="round"
     stroke-width="1.407"
     transform="matrix(1.56341 0 0 1.56341 -12.95 -12.198)"
     id="g11">
    <path
       d="m11.965 20c-.57.027-.965.156-.965.766v12.773c0 .809.699 1.457 1.574 1.457h22.824c.879 0 1.602-.648 1.602-1.457v-12.773c0-.813-.723-.766-1.602-.766h-22.824c-.219 0-.422-.012-.609 0"
       id="path7" />
    <path
       d="m15.05 13.402-3.25 4.598h11.195v-7h-5.508c-.813 0-2.438 2.402-2.438 2.402m9.938-2.402v7h11.188l-3.25-4.598s-1.625-2.402-2.441-2.402zm.005 0"
       id="path9" />
  </g>
  <path
     d="m17.196 25.518h16v2.667h-16zm-5.558 9.589h26.775v2.308h-26.775z"
     fill="#be0bff"
     id="path13" />
</svg>
