<?xml version="1.0" encoding="UTF-8" standalone="no"?>
<svg
   xmlns:dc="http://purl.org/dc/elements/1.1/"
   xmlns:cc="http://creativecommons.org/ns#"
   xmlns:rdf="http://www.w3.org/1999/02/22-rdf-syntax-ns#"
   xmlns:svg="http://www.w3.org/2000/svg"
   xmlns="http://www.w3.org/2000/svg"
   xmlns:sodipodi="http://sodipodi.sourceforge.net/DTD/sodipodi-0.dtd"
   xmlns:inkscape="http://www.inkscape.org/namespaces/inkscape"
   viewBox="0 0 48 48"
   version="1.1"
   id="svg13"
   sodipodi:docname="software-manager.svg"
   inkscape:version="0.92.5 (2060ec1f9f, 2020-04-08)">
  <metadata
     id="metadata19">
    <rdf:RDF>
      <cc:Work
         rdf:about="">
        <dc:format>image/svg+xml</dc:format>
        <dc:type
           rdf:resource="http://purl.org/dc/dcmitype/StillImage" />
        <dc:title></dc:title>
      </cc:Work>
    </rdf:RDF>
  </metadata>
  <defs
     id="defs17" />
  <sodipodi:namedview
     pagecolor="#ffffff"
     bordercolor="#666666"
     borderopacity="1"
     objecttolerance="10"
     gridtolerance="10"
     guidetolerance="10"
     inkscape:pageopacity="0"
     inkscape:pageshadow="2"
     inkscape:window-width="901"
     inkscape:window-height="480"
     id="namedview15"
     showgrid="false"
     inkscape:zoom="4.9166667"
     inkscape:cx="24"
     inkscape:cy="24"
     inkscape:window-x="413"
     inkscape:window-y="159"
     inkscape:window-maximized="0"
     inkscape:current-layer="svg13" />
  <linearGradient
     id="a"
     gradientUnits="userSpaceOnUse"
     x1="12.372"
     x2="40.763"
     y1="14.195"
     y2="41.449">
    <stop
       offset="0"
       stop-color="#ff0095"
       id="stop2" />
    <stop
       offset="1"
       stop-color="#00fff0"
       id="stop4" />
  </linearGradient>
  <g
     fill="none"
     stroke="url(#a)"
     stroke-width="2"
     id="g11">
    <path
       d="m19.415 15.435 8.948-.07v10.908h4.364l-8.727 8.727-8.727-8.727 4.05.04s.067-7.066.092-10.879z"
       stroke-linecap="round"
       stroke-linejoin="round"
       id="path7" />
    <path
       d="m21.011 3.237-1.896 4.74a16.252 16.252 0 0 0 -3.145 1.306l-4.7-2.013-3.83 3.83 2.004 4.682a16.252 16.252 0 0 0 -1.301 3.167l-4.737 1.892v5.418l4.74 1.896a16.252 16.252 0 0 0 1.306 3.145l-2.013 4.7 3.83 3.83 4.682-2.004c1.007.544 2.068.98 3.167 1.3l1.893 4.738h5.418l1.896-4.74a16.252 16.252 0 0 0 3.145-1.306l4.7 2.012 3.83-3.83-2.004-4.681c.544-1.007.98-2.068 1.301-3.167l4.737-1.893v-5.418l-4.74-1.896a16.252 16.252 0 0 0 -1.306-3.145l2.013-4.7-3.83-3.83-4.682 2.004a16.252 16.252 0 0 0 -3.167-1.301l-1.892-4.736z"
       id="path9" />
  </g>
</svg>
